<svg width="18" height="16" viewBox="0 0 18 16" fill="none" xmlns="http://www.w3.org/2000/svg">
<path d="M8.78431 15C6.74579 15 4.79075 14.2625 3.3493 12.9497C1.90784 11.637 1.09804 9.85652 1.09804 8C1.09804 6.14348 1.90784 4.36301 3.3493 3.05025C4.79075 1.7375 6.74579 1 8.78431 1C10.8228 1 12.7779 1.7375 14.2193 3.05025C15.6608 4.36301 16.4706 6.14348 16.4706 8C16.4706 9.85652 15.6608 11.637 14.2193 12.9497C12.7779 14.2625 10.8228 15 8.78431 15ZM8.78431 16C11.1141 16 13.3484 15.1571 14.9958 13.6569C16.6431 12.1566 17.5686 10.1217 17.5686 8C17.5686 5.87827 16.6431 3.84344 14.9958 2.34315C13.3484 0.842855 11.1141 0 8.78431 0C6.45457 0 4.22024 0.842855 2.57287 2.34315C0.925488 3.84344 0 5.87827 0 8C0 10.1217 0.925488 12.1566 2.57287 13.6569C4.22024 15.1571 6.45457 16 8.78431 16Z" fill="#334D6E"/>
<path d="M5.77025 5.786C5.76875 5.81829 5.77452 5.85053 5.7872 5.88072C5.79988 5.91091 5.81921 5.93841 5.84399 5.96155C5.86878 5.98468 5.8985 6.00296 5.93133 6.01524C5.96415 6.02753 5.99939 6.03357 6.03488 6.033H6.94076C7.09229 6.033 7.21308 5.92 7.23284 5.783C7.33166 5.127 7.82578 4.649 8.70641 4.649C9.45966 4.649 10.1492 4.992 10.1492 5.817C10.1492 6.452 9.73857 6.744 9.08963 7.188C8.35065 7.677 7.76539 8.248 7.80712 9.175L7.81041 9.392C7.81156 9.45761 7.84099 9.52017 7.89235 9.5662C7.9437 9.61222 8.01287 9.63801 8.08492 9.638H8.97543C9.04823 9.638 9.11806 9.61166 9.16954 9.56478C9.22102 9.51789 9.24994 9.4543 9.24994 9.388V9.283C9.24994 8.565 9.5497 8.356 10.359 7.797C11.0277 7.334 11.7249 6.82 11.7249 5.741C11.7249 4.23 10.3238 3.5 8.78986 3.5C7.39865 3.5 5.87457 4.09 5.77025 5.786ZM7.4799 11.549C7.4799 12.082 7.94657 12.476 8.58892 12.476C9.25763 12.476 9.7177 12.082 9.7177 11.549C9.7177 10.997 9.25653 10.609 8.58782 10.609C7.94657 10.609 7.4799 10.997 7.4799 11.549Z" fill="#334D6E"/>
</svg>
