<svg width="18" height="19" viewBox="0 0 18 19" fill="none" xmlns="http://www.w3.org/2000/svg">
<path d="M15.5911 10.6963C15.1496 11.1332 14.4 10.8205 14.4 10.1993C14.4 9.81307 14.0869 9.5 13.7007 9.5H9.5875C8.93166 9.5 8.4 8.96834 8.4 8.3125C8.4 7.65666 8.93166 7.125 9.5875 7.125H13.7007C14.0869 7.125 14.4 6.81193 14.4 6.42574C14.4 5.80453 15.1496 5.49175 15.5911 5.92871L16.9322 7.25585C17.5201 7.83762 17.5201 8.78738 16.9322 9.36915L15.5911 10.6963ZM12.6 10.6875C12.9314 10.6875 13.2 10.9561 13.2 11.2875V13.0625C13.2 14.3742 12.1367 15.4375 10.825 15.4375H8.56468C7.81099 15.4375 7.2 16.0485 7.2 16.8022C7.2 17.8142 6.13715 18.4741 5.23012 18.0253L2.00349 16.4288C0.776478 15.8217 0 14.5712 0 13.2022V6.6C0 2.95492 2.95492 0 6.6 0H10.2313C11.8708 0 13.2 1.32915 13.2 2.96875V5.3375C13.2 5.66887 12.9314 5.9375 12.6 5.9375C12.2686 5.9375 12 5.66887 12 5.3375V3.00707C12 2.00215 11.1854 1.1875 10.1804 1.1875H7.07636C5.91985 1.1875 5.5548 2.74847 6.59136 3.26135C6.96412 3.44579 7.2 3.82568 7.2 4.24156V11.85C7.2 13.1755 8.27452 14.25 9.6 14.25H10.2188C11.2025 14.25 12 13.4525 12 12.4688V11.2875C12 10.9561 12.2686 10.6875 12.6 10.6875Z" fill="#334D6E"/>
</svg>
