<svg width="19" height="18" viewBox="0 0 19 18" fill="none" xmlns="http://www.w3.org/2000/svg">
<path d="M0.949818 9.90008H1.89984V16.2C1.89984 17.1927 2.75201 18 3.79988 18H15.2001C16.248 18 17.1002 17.1927 17.1002 16.2V9.90008H18.0502C18.2381 9.90004 18.4217 9.84724 18.5779 9.74835C18.7341 9.64945 18.8558 9.5089 18.9277 9.34448C18.9996 9.18005 19.0184 8.99912 18.9818 8.82456C18.9451 8.65001 18.8547 8.48966 18.7218 8.3638L10.1717 0.263878C10.0835 0.180228 9.97882 0.113865 9.86357 0.0685854C9.74832 0.0233062 9.62477 0 9.5 0C9.37523 0 9.25169 0.0233062 9.13643 0.0685854C9.02118 0.113865 8.91649 0.180228 8.82834 0.263878L0.278154 8.3638C0.145332 8.48966 0.0548837 8.65001 0.0182437 8.82456C-0.0183963 8.99912 0.000417012 9.18005 0.0723051 9.34448C0.144193 9.5089 0.265928 9.64945 0.422121 9.74835C0.578314 9.84724 0.761951 9.90004 0.949818 9.90008ZM7.59996 16.2V11.7001H11.4V16.2H7.59996ZM9.5 2.17276L15.2001 7.5727V11.7001L15.2011 16.2H13.3001V11.7001C13.3001 10.7074 12.4479 9.90008 11.4 9.90008H7.59996C6.55209 9.90008 5.69992 10.7074 5.69992 11.7001V16.2H3.79988V7.5727L9.5 2.17276Z" fill="#334D6E"/>
</svg>
