<svg width="18" height="18" viewBox="0 0 18 18" fill="none" xmlns="http://www.w3.org/2000/svg">
<path d="M9.04307 11.3146L10.2 12.4715L13.6723 8.99999L10.2008 5.52844L9.04389 6.68617L10.5387 8.18181H4.37207V9.81817H10.5387L9.04307 11.3146Z" fill="#334D6E"/>
<path fill-rule="evenodd" clip-rule="evenodd" d="M0 14.7273C0 15.5953 0.344804 16.4277 0.95856 17.0414C1.57232 17.6552 2.40475 18 3.27273 18H14.7273C15.5953 18 16.4277 17.6552 17.0414 17.0414C17.6552 16.4277 18 15.5953 18 14.7273V3.27273C18 2.40475 17.6552 1.57232 17.0414 0.95856C16.4277 0.344804 15.5953 0 14.7273 0H3.27273C2.40475 0 1.57232 0.344804 0.95856 0.95856C0.344804 1.57232 0 2.40475 0 3.27273V14.7273ZM3.27273 16.3636H14.7273C15.1613 16.3636 15.5775 16.1912 15.8844 15.8844C16.1912 15.5775 16.3636 15.1613 16.3636 14.7273V3.27273C16.3636 2.83874 16.1912 2.42252 15.8844 2.11564C15.5775 1.80877 15.1613 1.63636 14.7273 1.63636H3.27273C2.83874 1.63636 2.42252 1.80877 2.11564 2.11564C1.80877 2.42252 1.63636 2.83874 1.63636 3.27273V14.7273C1.63636 15.1613 1.80877 15.5775 2.11564 15.8844C2.42252 16.1912 2.83874 16.3636 3.27273 16.3636Z" fill="#334D6E"/>
</svg>
