<svg width="21" height="18" viewBox="0 0 21 18" fill="none" xmlns="http://www.w3.org/2000/svg">
<path d="M16.4574 0C16.6351 5.7506e-05 16.8073 0.0537834 16.9449 0.1521L17.0231 0.2151L20.3884 3.3921L20.4192 3.4263C20.5241 3.5487 20.5714 3.6873 20.5714 3.8223V5.5512C20.5714 6.4458 20.1816 7.2612 19.5429 7.8732V17.325C19.5429 17.4882 19.4752 17.646 19.3525 17.7689C19.2298 17.8919 19.0603 17.9717 18.8754 17.9937L18.7715 18H1.80127C1.61486 18 1.43477 17.9409 1.29429 17.8337C1.15381 17.7265 1.06244 17.5784 1.03709 17.4168L1.02989 17.325V7.8732C0.421744 7.29082 0.0611232 6.54306 0.00858848 5.7555L0.00138899 5.5503V3.861C-0.0075478 3.73278 0.0267876 3.60508 0.100125 3.4938L0.166978 3.4083L0.208118 3.3669L3.54972 0.216C3.67073 0.101779 3.83316 0.0276919 4.00946 0.00629997L4.1154 0H16.4574ZM13.4563 7.5978L13.4439 7.614C13.0773 8.04444 12.6008 8.39392 12.0524 8.63457C11.504 8.87521 10.8989 9.00035 10.2854 9C9.6684 9.00037 9.05997 8.87383 8.50917 8.63057C7.95837 8.38731 7.48063 8.03416 7.11451 7.5996C6.7486 8.03414 6.27105 8.3873 5.72042 8.63056C5.16979 8.87382 4.5615 9.00038 3.94467 9C3.46127 9 2.99947 8.9244 2.57264 8.7858V16.65H4.1154V10.5768C4.1154 10.4137 4.18291 10.2561 4.30543 10.1332C4.42795 10.0102 4.59719 9.93028 4.78187 9.9081L4.88677 9.9H9.51092C9.69732 9.90001 9.87742 9.95908 10.0179 10.0663C10.1584 10.1735 10.2497 10.3216 10.2751 10.4832L10.2823 10.575V16.6482H17.9981V8.7849C17.1964 9.04559 16.3194 9.07066 15.4999 8.85631C14.6804 8.64196 13.963 8.19985 13.4563 7.5969V7.5978ZM8.73851 11.2509H5.65815V16.6491H8.73851V11.2509ZM15.6912 9.9009C15.8776 9.90091 16.0577 9.95998 16.1982 10.0672C16.3386 10.1744 16.43 10.3225 16.4554 10.4841L16.4626 10.5759V13.7277C16.4625 13.8909 16.3949 14.0487 16.2721 14.1716C16.1494 14.2946 15.9799 14.3744 15.7951 14.3964L15.6912 14.4027H12.0894C11.903 14.4027 11.7229 14.3436 11.5824 14.2364C11.4419 14.1292 11.3505 13.9811 11.3252 13.8195L11.318 13.7277V10.5759C11.318 10.4128 11.3855 10.2552 11.508 10.1323C11.6305 10.0093 11.7998 9.92938 11.9845 9.9072L12.0894 9.9009H15.6912ZM14.9188 11.2509H12.8607V13.0527H14.9178V11.2509H14.9188ZM6.34313 4.5018H1.54414V5.5503L1.55031 5.7033L1.58014 5.9121L1.61305 6.0525L1.66448 6.2073L1.72002 6.3405L1.76116 6.4251C1.79407 6.4863 1.82904 6.5457 1.86812 6.6033L1.97303 6.7491L2.02959 6.8157L2.16227 6.9561L2.30729 7.0857L2.40706 7.1622L2.45025 7.1928C2.7732 7.4178 3.16506 7.5726 3.59292 7.6275L3.77805 7.6446L3.94261 7.6491C5.21281 7.6491 6.25262 6.786 6.33696 5.6934L6.3421 5.5494V4.5027L6.34313 4.5018ZM12.6838 4.5018H7.88589V5.5503C7.88589 6.6123 8.78891 7.4916 9.95934 7.6302L10.1208 7.6446L10.2854 7.6491C11.5546 7.6491 12.5944 6.786 12.6787 5.6934L12.6838 5.5494V4.5027V4.5018ZM19.0266 4.5018H14.2287V5.5503C14.2287 6.6123 15.1317 7.4916 16.3031 7.6302L16.4636 7.6446L16.6282 7.6491C17.2082 7.6491 17.741 7.4691 18.1555 7.1685L18.248 7.0983L18.3673 6.9966L18.5175 6.8436C18.573 6.7815 18.6255 6.7176 18.6718 6.6492L18.7787 6.4818L18.8435 6.3576L18.9032 6.2181L18.9341 6.1317L18.9731 5.9949L19.003 5.8536L19.0215 5.7033L19.0276 5.5503L19.0266 4.5018ZM7.26467 1.3491H4.45172L2.54076 3.1518H6.63111L7.26467 1.3491ZM11.6934 1.3491H8.87736L8.2438 3.1518H12.327L11.6934 1.3491ZM16.1201 1.3491H13.3071L13.9417 3.1518H18.031L16.1201 1.3491Z" fill="#334D6E"/>
</svg>
