<svg width="18" height="12" viewBox="0 0 18 12" fill="none" xmlns="http://www.w3.org/2000/svg">
<path d="M1.8208 4.00004C1.8208 3.82323 1.89752 3.65366 2.03409 3.52864C2.17065 3.40361 2.35587 3.33337 2.54901 3.33337H5.46183C5.65496 3.33337 5.84018 3.40361 5.97675 3.52864C6.11331 3.65366 6.19003 3.82323 6.19003 4.00004C6.19003 4.17685 6.11331 4.34642 5.97675 4.47145C5.84018 4.59647 5.65496 4.66671 5.46183 4.66671H2.54901C2.35587 4.66671 2.17065 4.59647 2.03409 4.47145C1.89752 4.34642 1.8208 4.17685 1.8208 4.00004Z" fill="#334D6E"/>
<path fill-rule="evenodd" clip-rule="evenodd" d="M2.91282 0C2.14029 0 1.39941 0.280951 0.853145 0.781048C0.306886 1.28115 0 1.95942 0 2.66667L0 9.33333C0 10.0406 0.306886 10.7189 0.853145 11.219C1.39941 11.719 2.14029 12 2.91282 12H14.5641C15.3366 12 16.0775 11.719 16.6238 11.219C17.17 10.7189 17.4769 10.0406 17.4769 9.33333V2.66667C17.4769 1.95942 17.17 1.28115 16.6238 0.781048C16.0775 0.280951 15.3366 0 14.5641 0H2.91282ZM14.5641 1.33333H2.91282C2.52656 1.33333 2.15611 1.47381 1.88298 1.72386C1.60985 1.97391 1.45641 2.31304 1.45641 2.66667V7.33333H16.0205V2.66667C16.0205 2.31304 15.8671 1.97391 15.5939 1.72386C15.3208 1.47381 14.9504 1.33333 14.5641 1.33333ZM16.0205 8.66667H1.45641V9.33333C1.45641 9.68696 1.60985 10.0261 1.88298 10.2761C2.15611 10.5262 2.52656 10.6667 2.91282 10.6667H14.5641C14.9504 10.6667 15.3208 10.5262 15.5939 10.2761C15.8671 10.0261 16.0205 9.68696 16.0205 9.33333V8.66667Z" fill="#334D6E"/>
</svg>
